<svg width="40" height="40" viewBox="0 0 40 40" fill="none" xmlns="http://www.w3.org/2000/svg">
<path d="M3.27026 33.0179V9.38435C3.27026 7.31623 3.27026 6.28215 3.71484 5.49223C4.10589 4.79738 4.72988 4.23247 5.49739 3.87844C6.36991 3.47595 7.51213 3.47595 9.79652 3.47595H29.3753C31.6597 3.47595 32.802 3.47595 33.6745 3.87844C34.4419 4.23247 35.066 4.79738 35.457 5.49223C35.9016 6.28215 35.9016 7.31623 35.9016 9.38435V29.3252H7.34918C5.09645 29.3252 3.27026 30.9784 3.27026 33.0179ZM3.27026 33.0179C3.27026 35.0574 5.09645 36.7107 7.34918 36.7107H35.9016M13.4675 10.8614H25.7043M13.4675 18.2469H25.7043M33.8621 29.3252V36.7107" stroke="#2E3B68" stroke-width="3" stroke-linecap="round" stroke-linejoin="round"/>
</svg>
