<svg width="40" height="40" viewBox="0 0 40 40" fill="none" xmlns="http://www.w3.org/2000/svg">
<rect width="40" height="40" fill="white"/>
<path fill-rule="evenodd" clip-rule="evenodd" d="M22.7065 4.59293C22.5975 4.58019 22.4874 4.58019 22.3782 4.59293C22.243 4.60873 22.0415 4.67113 21.64 4.98974C21.2177 5.32478 20.711 5.82866 19.9365 6.60319C19.162 7.37774 18.658 7.88436 18.323 8.30663C18.0044 8.70821 17.942 8.90976 17.9262 9.04496C17.9135 9.15401 17.9135 9.26418 17.9262 9.37323C17.942 9.50843 18.0044 9.70999 18.323 10.1116C18.658 10.5338 19.162 11.0405 19.9365 11.815L28.185 20.0635C28.9597 20.838 29.4662 21.342 29.8885 21.677C30.29 21.9957 30.4917 22.058 30.6269 22.0739C30.7359 22.0865 30.846 22.0865 30.9552 22.0739C31.0904 22.058 31.2919 21.9957 31.6934 21.677C32.1157 21.342 32.6224 20.838 33.3969 20.0635C34.1714 19.289 34.6754 18.7824 35.0104 18.36C35.329 17.9585 35.3914 17.757 35.4072 17.6219C35.4199 17.5127 35.4199 17.4025 35.4072 17.2935C35.3914 17.1584 35.329 16.9567 35.0104 16.5552C34.6754 16.1329 34.1714 15.6263 33.3969 14.8518L25.1484 6.60319C24.3737 5.82866 23.8672 5.32478 23.4449 4.98974C23.0434 4.67113 22.8417 4.60873 22.7065 4.59293ZM22.0882 2.10981C22.39 2.07456 22.6949 2.07456 22.9965 2.10981C23.7815 2.20149 24.4169 2.56956 24.9987 3.03131C25.5474 3.46653 26.1554 4.07466 26.8664 4.78576L35.2144 13.1337C35.9254 13.8447 36.5335 14.4528 36.9687 15.0013C37.4305 15.5833 37.7985 16.2185 37.8902 17.0035C37.9255 17.3052 37.9255 17.61 37.8902 17.9119C37.7985 18.6967 37.4305 19.332 36.9687 19.914C36.5335 20.4625 35.9254 21.0705 35.2144 21.7817L35.115 21.881C34.4039 22.592 33.7959 23.2002 33.2474 23.6354C32.6654 24.0972 32.03 24.4652 31.2452 24.5569C30.9434 24.5922 30.6385 24.5922 30.3369 24.5569C29.5519 24.4652 28.9165 24.0972 28.3347 23.6354C27.786 23.2002 27.178 22.592 26.467 21.881L25.448 20.862L20.862 25.448L21.881 26.467C22.592 27.178 23.2002 27.786 23.6354 28.3347C24.0972 28.9165 24.4652 29.5519 24.5569 30.3369C24.5922 30.6385 24.5922 30.9434 24.5569 31.2452C24.4652 32.03 24.0972 32.6654 23.6354 33.2474C23.2002 33.7959 22.592 34.404 21.8809 35.115L21.7817 35.2142C21.0707 35.9254 20.4625 36.5335 19.914 36.9687C19.332 37.4305 18.6967 37.7985 17.9119 37.8902C17.61 37.9255 17.3052 37.9255 17.0035 37.8902C16.2185 37.7985 15.5833 37.4305 15.0013 36.9687C14.4528 36.5335 13.8447 35.9254 13.1337 35.2144L4.78578 26.8664C4.07468 26.1554 3.46654 25.5474 3.03131 24.9987C2.56956 24.4169 2.20149 23.7815 2.10981 22.9965C2.07456 22.6949 2.07456 22.39 2.10981 22.0882C2.20149 21.3034 2.56956 20.668 3.03131 20.086C3.46653 19.5375 4.07466 18.9295 4.78574 18.2184L4.88513 18.119C5.59614 17.408 6.20423 16.7999 6.75276 16.3646C7.33471 15.9029 7.96998 15.5348 8.75494 15.4431C9.05668 15.4079 9.36151 15.4079 9.66326 15.4431C10.4482 15.5348 11.0835 15.9029 11.6654 16.3646C12.214 16.7999 12.822 17.408 13.5331 18.119L13.9209 18.5069L18.5069 13.9209L18.119 13.5331C17.408 12.822 16.7999 12.214 16.3646 11.6654C15.9029 11.0835 15.5348 10.4482 15.4431 9.66326C15.4079 9.36151 15.4079 9.05668 15.4431 8.75494C15.5348 7.96998 15.9029 7.33471 16.3646 6.75276C16.7999 6.20423 17.408 5.59616 18.119 4.88513L18.2184 4.78574C18.9295 4.07466 19.5375 3.46653 20.086 3.03131C20.668 2.56956 21.3034 2.20149 22.0882 2.10981ZM20.2747 15.6887L15.6887 20.2747L19.0942 23.6804L23.6804 19.0942L20.2747 15.6887ZM29.1475 3.27998C29.6357 2.79183 30.427 2.79183 30.9152 3.27998L36.0885 8.45333C36.5767 8.94149 36.5767 9.73294 36.0885 10.2211C35.6004 10.7093 34.809 10.7093 34.3209 10.2211L29.1475 5.04774C28.6594 4.55959 28.6594 3.76813 29.1475 3.27998ZM9.37323 17.9262C9.26418 17.9135 9.15401 17.9135 9.04496 17.9262C8.90976 17.942 8.70821 18.0044 8.30663 18.323C7.88436 18.658 7.37774 19.162 6.60319 19.9365C5.82866 20.711 5.32478 21.2177 4.98974 21.64C4.67113 22.0415 4.60873 22.243 4.59293 22.3782C4.58019 22.4874 4.58019 22.5975 4.59293 22.7065C4.60873 22.8417 4.67113 23.0434 4.98974 23.4449C5.32478 23.8672 5.82866 24.3737 6.60321 25.1484L14.8518 33.3969C15.6263 34.1714 16.1329 34.6754 16.5552 35.0104C16.9567 35.329 17.1584 35.3914 17.2935 35.4072C17.4025 35.4199 17.5127 35.4199 17.6219 35.4072C17.757 35.3914 17.9585 35.329 18.36 35.0104C18.7824 34.6754 19.289 34.1714 20.0635 33.3969C20.838 32.6224 21.342 32.1157 21.677 31.6934C21.9957 31.2919 22.058 31.0904 22.0739 30.9552C22.0865 30.846 22.0865 30.7359 22.0739 30.6269C22.058 30.4917 21.9957 30.29 21.677 29.8885C21.342 29.4662 20.838 28.9597 20.0635 28.185L11.815 19.9365C11.0404 19.162 10.5338 18.658 10.1116 18.323C9.70998 18.0044 9.50843 17.942 9.37323 17.9262ZM3.27876 29.1465C3.76691 28.6584 4.55838 28.6584 5.04653 29.1465L10.2199 34.3199C10.708 34.808 10.708 35.5994 10.2199 36.0875C9.73173 36.5757 8.94026 36.5757 8.45211 36.0875L3.27876 30.9142C2.79061 30.426 2.79061 29.6347 3.27876 29.1465Z" fill="#1C274C"/>
</svg>
