<svg width="80" height="80" viewBox="0 0 80 80" fill="none" xmlns="http://www.w3.org/2000/svg">
<path d="M45.825 68.0625H11.05C10.2341 68.0594 9.45173 67.7373 8.87013 67.1651C8.28853 66.5928 7.95381 65.8158 7.9375 65V15.15C7.9375 14.3245 8.26542 13.5328 8.84913 12.9491C9.43284 12.3654 10.2245 12.0375 11.05 12.0375H60.85C61.6755 12.0375 62.4672 12.3654 63.0509 12.9491C63.6346 13.5328 63.9625 14.3245 63.9625 15.15V43.15" stroke="white" stroke-width="5"/>
<path d="M7.9375 25.7875H63.9625" stroke="white" stroke-width="5"/>
<path d="M20.575 12.0375V5.78751" stroke="white" stroke-width="5"/>
<path d="M50.5249 12.0375V5.78751" stroke="white" stroke-width="5"/>
<path d="M56.525 72.3375C65.1062 72.3375 72.0625 65.3811 72.0625 56.8C72.0625 48.2189 65.1062 41.2625 56.525 41.2625C47.9439 41.2625 40.9875 48.2189 40.9875 56.8C40.9875 65.3811 47.9439 72.3375 56.525 72.3375Z" stroke="white" stroke-width="5"/>
<path d="M56.5249 45.875V57.275L61.9624 61.45" stroke="white" stroke-width="5"/>
</svg>
