<svg width="73" height="73" viewBox="0 0 73 73" fill="none" xmlns="http://www.w3.org/2000/svg">
<path d="M28.1353 66.9167L26.9187 57.1834C26.2596 56.9299 25.6386 56.6257 25.0556 56.2709C24.4726 55.916 23.9023 55.5358 23.3447 55.1302L14.2957 58.9323L5.93115 44.4844L13.7634 38.5532C13.7127 38.1983 13.6874 37.8561 13.6874 37.5266V35.4735C13.6874 35.144 13.7127 34.8018 13.7634 34.4469L5.93115 28.5157L14.2957 14.0677L23.3447 17.8698C23.9023 17.4643 24.4853 17.0841 25.0937 16.7292C25.702 16.3743 26.3103 16.0702 26.9187 15.8167L28.1353 6.08337H44.8645L46.0812 15.8167C46.7402 16.0702 47.3612 16.3743 47.9442 16.7292C48.5272 17.0841 49.0975 17.4643 49.6551 17.8698L58.7041 14.0677L67.0687 28.5157L59.2364 34.4469C59.2871 34.8018 59.3124 35.144 59.3124 35.4735V37.5266C59.3124 37.8561 59.2617 38.1983 59.1603 38.5532L66.9926 44.4844L58.628 58.9323L49.6551 55.1302C49.0975 55.5358 48.5145 55.916 47.9062 56.2709C47.2978 56.6257 46.6895 56.9299 46.0812 57.1834L44.8645 66.9167H28.1353ZM33.4582 60.8334H39.4655L40.5301 52.773C42.1016 52.3674 43.5591 51.7717 44.9025 50.986C46.2459 50.2002 47.4753 49.2497 48.5905 48.1344L56.1187 51.2521L59.0843 46.0813L52.5447 41.1386C52.7982 40.4289 52.9756 39.6811 53.077 38.8954C53.1784 38.1096 53.2291 37.3111 53.2291 36.5C53.2291 35.6889 53.1784 34.8905 53.077 34.1047C52.9756 33.319 52.7982 32.5712 52.5447 31.8615L59.0843 26.9188L56.1187 21.748L48.5905 24.9417C47.4753 23.7757 46.2459 22.7999 44.9025 22.0141C43.5591 21.2283 42.1016 20.6327 40.5301 20.2271L39.5416 12.1667H33.5343L32.4697 20.2271C30.8982 20.6327 29.4407 21.2283 28.0973 22.0141C26.7539 22.7999 25.5246 23.7504 24.4093 24.8657L16.8812 21.748L13.9155 26.9188L20.4551 31.7855C20.2016 32.5459 20.0242 33.3063 19.9228 34.0667C19.8214 34.8271 19.7707 35.6382 19.7707 36.5C19.7707 37.3111 19.8214 38.0969 19.9228 38.8573C20.0242 39.6177 20.2016 40.3782 20.4551 41.1386L13.9155 46.0813L16.8812 51.2521L24.4093 48.0584C25.5246 49.2243 26.7539 50.2002 28.0973 50.986C29.4407 51.7717 30.8982 52.3674 32.4697 52.773L33.4582 60.8334ZM36.652 47.1459C39.5923 47.1459 42.1016 46.1066 44.1801 44.0282C46.2586 41.9497 47.2978 39.4403 47.2978 36.5C47.2978 33.5598 46.2586 31.0504 44.1801 28.9719C42.1016 26.8934 39.5923 25.8542 36.652 25.8542C33.661 25.8542 31.139 26.8934 29.0858 28.9719C27.0327 31.0504 26.0062 33.5598 26.0062 36.5C26.0062 39.4403 27.0327 41.9497 29.0858 44.0282C31.139 46.1066 33.661 47.1459 36.652 47.1459Z" fill="#4F378B"/>
</svg>
