<svg width="60" height="60" viewBox="0 0 60 60" fill="none" xmlns="http://www.w3.org/2000/svg">
<g clip-path="url(#clip0_72_34)">
<path d="M40.4982 48.0009L36.001 48.0056V45H24.001V48.0197L19.5029 48.0244C18.676 48.0253 18.0057 48.6956 18.0048 49.5234L18.0001 52.4981C17.9991 53.3278 18.6723 54.0009 19.5019 54L40.4982 53.9756C41.3251 53.9747 41.9954 53.3044 41.9963 52.4775L42.0001 49.5028C42.001 48.6731 41.3279 48 40.4982 48.0009ZM54.8626 8.50688C54.6169 7.06031 53.3429 6 51.8494 6H8.14975C6.65632 6 5.38225 7.06031 5.13663 8.50688C-0.311183 40.6087 0.00381689 38.6325 0.00287939 39C6.68865e-05 40.6237 1.34257 42 3.05913 42H56.941C58.6501 42 59.9888 40.635 59.9963 39.0197C59.9982 38.6372 60.3104 40.6087 54.8626 8.50688ZM24.3591 12H35.6401L36.556 21H23.4432L24.3591 12ZM17.3119 36H6.66475L8.44694 25.5H18.3816L17.3119 36ZM18.8391 21H9.21007L10.7373 12H19.7551L18.8391 21ZM21.916 36L22.9848 25.5H37.0144L38.0832 36H21.916ZM40.2441 12H49.2619L50.7891 21H41.1601L40.2441 12ZM42.6873 36L41.6185 25.5H51.5532L53.3354 36H42.6873Z" fill="#2E3B68"/>
</g>
<defs>
<clipPath id="clip0_72_34">
<rect width="60" height="60" fill="white"/>
</clipPath>
</defs>
</svg>
