<svg xmlns="http://www.w3.org/2000/svg" width="40" height="40" fill="none" viewBox="0 0 40 40"><path fill="#fff" d="M0 0h40v40H0z"/><path fill="#1c274c" fill-rule="evenodd" d="M22.707 4.593a1.4 1.4 0 0 0-.329 0c-.135.016-.337.078-.738.397-.422.335-.929.839-1.704 1.613-.774.775-1.278 1.281-1.613 1.704-.319.401-.381.603-.397.738q-.018.165 0 .328c.016.135.078.337.397.739.335.422.839.928 1.613 1.703l8.249 8.249c.775.774 1.281 1.278 1.704 1.613.401.319.603.381.738.397q.164.018.328 0c.135-.016.337-.078.738-.397.423-.335.93-.839 1.704-1.613.774-.775 1.278-1.282 1.613-1.704.319-.401.381-.603.397-.738a1.4 1.4 0 0 0 0-.328c-.016-.136-.078-.337-.397-.739-.335-.422-.839-.929-1.613-1.703l-8.249-8.249c-.774-.774-1.28-1.278-1.703-1.613-.402-.319-.603-.381-.739-.397m-.619-2.483q.455-.052.909 0c.785.091 1.42.46 2.002.921.548.436 1.156 1.044 1.867 1.755l8.348 8.348c.711.71 1.32 1.319 1.755 1.867.462.582.83 1.217.921 2.002a4 4 0 0 1 0 .909c-.092.785-.46 1.42-.921 2.002-.436.548-1.044 1.156-1.755 1.868l-.099.099c-.711.711-1.32 1.32-1.868 1.754-.582.462-1.217.83-2.002.922a4 4 0 0 1-.908 0c-.785-.092-1.42-.46-2.002-.922-.549-.435-1.157-1.043-1.868-1.754l-1.019-1.019-4.586 4.586 1.019 1.019c.711.711 1.32 1.319 1.754 1.868.462.581.83 1.217.922 2.002q.053.454 0 .908c-.092.785-.46 1.42-.922 2.002-.435.549-1.043 1.157-1.754 1.868l-.1.1c-.71.71-1.319 1.318-1.867 1.754-.582.462-1.217.83-2.002.921a4 4 0 0 1-.909 0c-.785-.092-1.42-.46-2.002-.921-.548-.436-1.156-1.044-1.867-1.755l-8.348-8.348c-.711-.71-1.32-1.319-1.755-1.867-.461-.582-.83-1.217-.921-2.002a4 4 0 0 1 0-.909c.091-.785.46-1.42.921-2.002.436-.548 1.044-1.156 1.755-1.868l.1-.099c.71-.711 1.318-1.32 1.867-1.754.582-.462 1.217-.83 2.002-.922a4 4 0 0 1 .908 0c.785.092 1.42.46 2.002.922.549.435 1.157 1.043 1.868 1.754l.388.388 4.586-4.586-.388-.388c-.711-.711-1.32-1.319-1.754-1.868-.462-.581-.83-1.217-.922-2.002a4 4 0 0 1 0-.908c.092-.785.46-1.42.922-2.002.435-.549 1.043-1.157 1.754-1.868l.1-.1c.71-.71 1.319-1.318 1.867-1.754.582-.461 1.217-.83 2.002-.921m-1.813 13.579-4.586 4.586 3.405 3.405 4.586-4.586zM29.148 3.28a1.25 1.25 0 0 1 1.767 0l5.174 5.173a1.25 1.25 0 1 1-1.768 1.768l-5.173-5.173a1.25 1.25 0 0 1 0-1.768M9.373 17.926a1.4 1.4 0 0 0-.328 0c-.135.016-.337.078-.738.397-.423.335-.93.839-1.704 1.613-.774.775-1.278 1.282-1.613 1.704-.319.401-.381.603-.397.738q-.02.166 0 .328c.016.136.078.337.397.739.335.422.839.929 1.613 1.703l8.249 8.249c.774.774 1.28 1.278 1.703 1.613.402.319.603.381.739.397q.163.02.328 0c.135-.016.337-.078.738-.397.422-.335.929-.839 1.704-1.613.774-.775 1.278-1.281 1.613-1.704.319-.401.381-.603.397-.738a1.4 1.4 0 0 0 0-.328c-.016-.135-.078-.337-.397-.738-.335-.423-.839-.93-1.613-1.704l-8.249-8.248c-.775-.775-1.281-1.279-1.703-1.614-.402-.319-.604-.381-.739-.397M3.28 29.146a1.25 1.25 0 0 1 1.768 0l5.173 5.174a1.25 1.25 0 1 1-1.768 1.767L3.28 30.914a1.25 1.25 0 0 1 0-1.768" clip-rule="evenodd"/></svg>