<svg width="40" height="40" viewBox="0 0 40 40" fill="none" xmlns="http://www.w3.org/2000/svg">
<path d="M20.0586 30.3266C19.831 29.8589 19.3598 29.5176 18.7894 29.457C18.3064 29.4054 17.8336 29.3086 17.3839 29.169C17.1823 29.1056 16.9931 29.0363 16.8179 28.9621L17.109 28.22C17.3145 28.3058 17.5262 28.3843 17.743 28.4552L17.752 28.4583L17.7611 28.461C18.4568 28.6761 19.1414 28.7851 19.7954 28.7851C20.4522 28.7851 20.9283 28.7028 21.294 28.5262L21.3159 28.5157L21.3372 28.5041C21.8913 28.2066 22.2092 27.6955 22.2092 27.1013C22.2092 26.4419 21.829 25.8946 21.1657 25.5989C20.8322 25.4471 20.3584 25.3021 19.6759 25.1434C18.9759 24.9778 18.3878 24.8021 17.9317 24.6221C17.5984 24.481 17.3092 24.2559 17.0485 23.934C16.8241 23.6466 16.7106 23.2146 16.7106 22.6492C16.7106 21.9671 16.9159 21.4041 17.3384 20.9279C17.7145 20.5107 18.2485 20.2273 18.9653 20.0684C19.497 19.9505 19.9117 19.5955 20.0982 19.137C20.309 19.6017 20.7575 19.9473 21.3156 20.0305C21.7818 20.1 22.2099 20.2107 22.5947 20.3606L22.3269 21.0879C21.6002 20.815 20.8851 20.6772 20.1933 20.6772C17.8961 20.6772 17.7798 22.1598 17.7798 22.457C17.7798 23.1013 18.1517 23.6415 18.8002 23.9393L18.8184 23.9477L18.8368 23.9555C19.1644 24.0922 19.6292 24.2241 20.3 24.3703C20.9936 24.517 21.572 24.6849 22.0264 24.8712L22.0359 24.875L22.0453 24.8787C22.3828 25.0101 22.6722 25.2294 22.9301 25.5494L22.9342 25.5544L22.9384 25.5595C23.1639 25.8322 23.2784 26.254 23.2784 26.8131C23.2784 27.4585 23.0786 28.0047 22.6676 28.4832C22.311 28.8983 21.8133 29.1856 21.1455 29.3615C20.6299 29.4974 20.2299 29.8662 20.0586 30.3266Z" fill="#2E3B68"/>
<path d="M20.6402 32.2581H19.5333C19.2858 32.2581 19.0851 32.0656 19.0851 31.828V30.9646C19.0851 30.7375 18.9009 30.5508 18.6655 30.5256C18.1051 30.4661 17.563 30.3549 17.0391 30.1923C16.5301 30.0319 16.0892 29.8418 15.7163 29.6213C15.5449 29.52 15.4825 29.3145 15.5534 29.1338L16.3127 27.197C16.415 26.9364 16.7448 26.8366 16.9989 26.9714C17.3419 27.1532 17.7106 27.3086 18.1046 27.4377C18.692 27.6192 19.2556 27.7099 19.7954 27.7099C20.2596 27.7099 20.5913 27.662 20.7901 27.5659C20.989 27.459 21.0885 27.3041 21.0885 27.1013C21.0885 26.8665 20.9559 26.6904 20.6906 26.5729C20.435 26.4555 20.0085 26.3274 19.412 26.1886C18.6446 26.0071 18.0053 25.8149 17.4938 25.6121C16.9823 25.3985 16.537 25.0568 16.1582 24.5871C15.7792 24.1067 15.5898 23.4607 15.5898 22.6493C15.5898 21.7097 15.8882 20.9037 16.4848 20.231C17.0228 19.6345 17.7653 19.231 18.7129 19.0209C18.9262 18.9736 19.0851 18.796 19.0851 18.5861V17.6345C19.0851 17.3968 19.2858 17.2043 19.5333 17.2043H20.6402C20.8878 17.2043 21.0885 17.3968 21.0885 17.6345V18.5317C21.0885 18.7514 21.2614 18.9345 21.4876 18.9682C22.3177 19.0919 23.0471 19.3261 23.6756 19.6708C23.854 19.7686 23.9248 19.9768 23.8563 20.1626L23.1458 22.0914C23.0517 22.3471 22.7379 22.4553 22.4855 22.3332C21.6851 21.9461 20.9212 21.7525 20.1933 21.7525C19.3313 21.7525 18.9002 21.9874 18.9002 22.457C18.9002 22.6813 19.0283 22.8521 19.2839 22.9697C19.5398 23.0764 19.9612 23.1938 20.5485 23.322C21.3062 23.4822 21.9458 23.6689 22.4667 23.8824C22.9876 24.0852 23.4375 24.4215 23.8166 24.8914C24.2048 25.3611 24.3991 26.0018 24.3991 26.8132C24.3991 27.7099 24.1101 28.4947 23.5322 29.1674C23.029 29.7536 22.3322 30.1639 21.4423 30.3985C21.2377 30.4525 21.0885 30.6263 21.0885 30.8297V31.828C21.0885 32.0656 20.8878 32.2581 20.6402 32.2581Z" fill="#2E3B68"/>
<path fill-rule="evenodd" clip-rule="evenodd" d="M15.1548 4.30103H24.86C27.3457 4.30103 25.9806 7.87952 24.9742 10.0623L23.8289 12.5655L23.6742 12.9032C24.759 12.8527 25.8319 13.1409 26.7314 13.7247C30.0967 16.6791 32.828 20.2361 34.7714 24.1956C35.5287 25.6597 35.8291 27.3027 35.6365 28.9268C35.4052 33.0664 31.9439 36.3651 27.628 36.5591H12.3867C8.06968 36.3709 4.60317 33.0756 4.36703 28.9354C4.17437 27.3113 4.4748 25.6683 5.23221 24.2042C7.17793 20.2408 9.91296 16.6806 13.2832 13.7247C14.1829 13.1409 15.2556 12.8527 16.3404 12.9032L16.1611 12.5139L15.0405 10.0623C14.0386 7.87952 12.6668 4.30103 15.1548 4.30103Z" stroke="#2E3B68" stroke-width="3" stroke-linecap="round" stroke-linejoin="round"/>
<path d="M23.6742 14.5162C24.6264 14.5162 25.3983 13.794 25.3983 12.9033C25.3983 12.0125 24.6264 11.2904 23.6742 11.2904V14.5162ZM16.3404 11.2904C15.3882 11.2904 14.6163 12.0125 14.6163 12.9033C14.6163 13.794 15.3882 14.5162 16.3404 14.5162V11.2904ZM29.8335 12.1503C30.6586 11.7057 30.9422 10.7195 30.4668 9.94763C29.9914 9.17576 28.9374 8.91049 28.1124 9.35514L29.8335 12.1503ZM23.8289 12.5656L24.1616 14.1482L24.1666 14.1473L23.8289 12.5656ZM16.1611 12.514L16.5181 10.936L16.5025 10.933L16.1611 12.514ZM11.8758 9.34105C11.0424 8.91019 9.9934 9.19292 9.53282 9.97256C9.07222 10.7522 9.37446 11.7335 10.2079 12.1644L11.8758 9.34105ZM23.6742 11.2904H16.3404V14.5162H23.6742V11.2904ZM28.1124 9.35514C26.671 10.1318 25.111 10.6814 23.4912 10.984L24.1666 14.1473C26.1558 13.7757 28.0691 13.1012 29.8335 12.1503L28.1124 9.35514ZM23.4963 10.983C21.1896 11.4074 18.8186 11.3913 16.5181 10.936L15.8042 14.092C18.559 14.6373 21.399 14.6564 24.1616 14.1482L23.4963 10.983ZM16.5025 10.933C14.887 10.6279 13.3274 10.0915 11.8758 9.34105L10.2079 12.1644C11.9661 13.0734 13.8578 13.7244 15.8199 14.095L16.5025 10.933Z" fill="#2E3B68"/>
</svg>
