<svg width="60" height="75" viewBox="0 0 60 75" fill="none" xmlns="http://www.w3.org/2000/svg">
<path d="M22.5 34.0096H37.5M22.5 21.6425H32.5M22.5 46.3767H37.5M12.5 19.1691V64.9274L18.75 58.7439L25 64.9274L30 58.7439L35 64.9274L41.25 58.7439L47.5 64.9274V19.1691C47.5 15.706 47.5 13.9744 46.955 12.6517C46.4757 11.4881 45.7108 10.5422 44.77 9.94937C43.7005 9.27539 42.3003 9.27539 39.5 9.27539H20.5C17.6997 9.27539 16.2996 9.27539 15.2301 9.94937C14.2892 10.5422 13.5243 11.4881 13.045 12.6517C12.5 13.9744 12.5 15.706 12.5 19.1691Z" stroke="#2E3B68" stroke-width="5" stroke-linecap="round" stroke-linejoin="round"/>
</svg>
