<svg width="50" height="50" viewBox="0 0 50 50" fill="none" xmlns="http://www.w3.org/2000/svg">
<path d="M4.77076 26.4791L11.0208 32.7291C11.4131 33.1214 11.9451 33.3418 12.4999 33.3418C13.0547 33.3418 13.5868 33.1214 13.9791 32.7291C14.3714 32.3368 14.5918 31.8047 14.5918 31.2499C14.5918 30.6951 14.3714 30.1631 13.9791 29.7708L11.2708 27.0833L43.7499 27.0833C44.3025 27.0833 44.8324 26.8638 45.2231 26.4731C45.6138 26.0824 45.8333 25.5525 45.8333 24.9999C45.8333 24.4474 45.6138 23.9175 45.2231 23.5268C44.8324 23.1361 44.3025 22.9166 43.7499 22.9166L11.2708 22.9166L13.9791 20.2291C14.1744 20.0354 14.3293 19.805 14.4351 19.5511C14.5409 19.2973 14.5953 19.025 14.5953 18.7499C14.5953 18.4749 14.5409 18.2026 14.4351 17.9487C14.3293 17.6949 14.1744 17.4644 13.9791 17.2708C13.7854 17.0755 13.555 16.9205 13.3011 16.8148C13.0472 16.709 12.7749 16.6545 12.4999 16.6545C12.2249 16.6545 11.9526 16.709 11.6987 16.8148C11.4448 16.9205 11.2144 17.0755 11.0208 17.2708L4.77076 23.5208C4.57549 23.7144 4.4205 23.9449 4.31473 24.1987C4.20896 24.4526 4.15451 24.7249 4.15451 24.9999C4.15451 25.275 4.20896 25.5473 4.31473 25.8011C4.4205 26.055 4.57549 26.2854 4.77076 26.4791Z" fill="#415C28"/>
</svg>
