<svg width="50" height="50" viewBox="0 0 50 50" fill="none" xmlns="http://www.w3.org/2000/svg">
<path d="M45.2292 23.5209L38.9792 17.2709C38.5869 16.8786 38.0549 16.6582 37.5001 16.6582C36.9453 16.6582 36.4132 16.8786 36.0209 17.2709C35.6286 17.6632 35.4082 18.1953 35.4082 18.7501C35.4082 19.3049 35.6286 19.8369 36.0209 20.2292L38.7292 22.9167H6.25008C5.69755 22.9167 5.16764 23.1362 4.77694 23.5269C4.38624 23.9176 4.16675 24.4475 4.16675 25.0001C4.16675 25.5526 4.38624 26.0825 4.77694 26.4732C5.16764 26.8639 5.69755 27.0834 6.25008 27.0834H38.7292L36.0209 29.7709C35.8256 29.9646 35.6707 30.195 35.5649 30.4489C35.4591 30.7027 35.4047 30.975 35.4047 31.2501C35.4047 31.5251 35.4591 31.7974 35.5649 32.0513C35.6707 32.3051 35.8256 32.5356 36.0209 32.7292C36.2146 32.9245 36.445 33.0795 36.6989 33.1852C36.9528 33.291 37.2251 33.3455 37.5001 33.3455C37.7751 33.3455 38.0474 33.291 38.3013 33.1852C38.5552 33.0795 38.7856 32.9245 38.9792 32.7292L45.2292 26.4792C45.4245 26.2856 45.5795 26.0551 45.6853 25.8013C45.791 25.5474 45.8455 25.2751 45.8455 25.0001C45.8455 24.725 45.791 24.4527 45.6853 24.1989C45.5795 23.945 45.4245 23.7146 45.2292 23.5209Z" fill="#415C28"/>
</svg>
