<svg width="73" height="73" viewBox="0 0 73 73" fill="none" xmlns="http://www.w3.org/2000/svg">
<path d="M46.5374 50.7959L50.7957 46.5375L39.5416 35.2834V21.2917H33.4583V37.7167L46.5374 50.7959ZM36.4999 66.9167C32.2923 66.9167 28.3381 66.1183 24.6374 64.5214C20.9367 62.9245 17.7176 60.7573 14.9801 58.0198C12.2426 55.2823 10.0754 52.0632 8.47856 48.3625C6.88169 44.6618 6.08325 40.7077 6.08325 36.5C6.08325 32.2924 6.88169 28.3382 8.47856 24.6375C10.0754 20.9368 12.2426 17.7177 14.9801 14.9802C17.7176 12.2427 20.9367 10.0756 24.6374 8.47869C28.3381 6.88181 32.2923 6.08337 36.4999 6.08337C40.7076 6.08337 44.6617 6.88181 48.3624 8.47869C52.0631 10.0756 55.2822 12.2427 58.0197 14.9802C60.7572 17.7177 62.9244 20.9368 64.5213 24.6375C66.1181 28.3382 66.9166 32.2924 66.9166 36.5C66.9166 40.7077 66.1181 44.6618 64.5213 48.3625C62.9244 52.0632 60.7572 55.2823 58.0197 58.0198C55.2822 60.7573 52.0631 62.9245 48.3624 64.5214C44.6617 66.1183 40.7076 66.9167 36.4999 66.9167Z" fill="#4F378B"/>
</svg>
