<svg width="60" height="60" viewBox="0 0 60 60" fill="none" xmlns="http://www.w3.org/2000/svg">
<g clip-path="url(#clip0_72_39)">
<path d="M26.4665 17.3009C27.7341 12.7668 26.5831 7.69865 23.0263 4.13121C19.4779 0.599798 14.4648 -0.557553 9.96048 0.665509L17.5956 8.30276L15.5904 15.7768L8.10575 17.7778L0.466379 10.1469C-0.750325 14.6555 0.409147 19.6643 3.95327 23.2084C7.65849 26.92 13.0065 28.0117 17.6825 26.4876L17.727 26.53L49.1366 57.9396C50.3788 59.1796 52.0088 59.807 53.6367 59.807C55.2689 59.807 56.8905 59.1796 58.1368 57.9396C60.6211 55.4595 60.6211 51.4343 58.1368 48.9394L26.4665 17.3009ZM54.1836 56.8734C52.8461 56.8734 51.765 55.786 51.765 54.4421C51.765 53.0982 52.8461 52.0129 54.1836 52.0129C55.5339 52.0129 56.6255 53.0982 56.6255 54.4421C56.6255 55.786 55.5339 56.8734 54.1836 56.8734Z" fill="#2E3B68"/>
</g>
<defs>
<clipPath id="clip0_72_39">
<rect width="60" height="60" fill="white"/>
</clipPath>
</defs>
</svg>
