<svg width="80" height="80" viewBox="0 0 80 80" fill="none" xmlns="http://www.w3.org/2000/svg">
<path d="M37.5637 14.7038C38.3354 12.9726 38.7214 12.1069 39.2587 11.8404C39.7254 11.6088 40.2734 11.6088 40.7401 11.8404C41.2774 12.1069 41.6634 12.9726 42.4351 14.7038L48.5817 28.4936C48.8101 29.0054 48.9241 29.2613 49.1007 29.4573C49.2567 29.6307 49.4477 29.7694 49.6607 29.8643C49.9017 29.9716 50.1804 30.001 50.7377 30.0598L65.7521 31.6445C67.6371 31.8435 68.5794 31.9429 68.9991 32.3716C69.3634 32.7439 69.5327 33.2652 69.4567 33.7807C69.3694 34.374 68.6654 35.0083 67.2574 36.2773L56.0417 46.3847C55.6257 46.7597 55.4174 46.9473 55.2857 47.1757C55.1691 47.378 55.0961 47.6023 55.0717 47.8343C55.0441 48.0967 55.1021 48.3707 55.2184 48.919L58.3511 63.688C58.7444 65.5423 58.9411 66.4693 58.6631 67.0007C58.4214 67.4627 57.9781 67.7847 57.4644 67.8717C56.8731 67.9717 56.0521 67.4983 54.4101 66.5513L41.3317 59.008C40.8464 58.728 40.6037 58.5883 40.3457 58.5333C40.1174 58.485 39.8814 58.485 39.6531 58.5333C39.3951 58.5883 39.1524 58.728 38.6671 59.008L25.5888 66.5513C23.9469 67.4983 23.1259 67.9717 22.5345 67.8717C22.0208 67.7847 21.5774 67.4627 21.3359 67.0007C21.0579 66.4693 21.2546 65.5423 21.6479 63.688L24.7804 48.919C24.8967 48.3707 24.9548 48.0967 24.9272 47.8343C24.9028 47.6023 24.8299 47.378 24.7132 47.1757C24.5814 46.9473 24.3732 46.7597 23.957 46.3847L12.7416 36.2773C11.3336 35.0083 10.6295 34.374 10.542 33.7807C10.466 33.2652 10.6354 32.7439 10.9998 32.3716C11.4194 31.9429 12.3619 31.8435 14.2469 31.6445L29.2612 30.0598C29.8185 30.001 30.0971 29.9716 30.338 29.8643C30.5512 29.7694 30.7421 29.6307 30.8983 29.4573C31.0748 29.2613 31.1888 29.0054 31.417 28.4936L37.5637 14.7038Z" stroke="white" stroke-width="5" stroke-linecap="round" stroke-linejoin="round"/>
</svg>
