<svg width="80" height="80" viewBox="0 0 80 80" fill="none" xmlns="http://www.w3.org/2000/svg">
<path d="M24.3334 38L33.6667 10C33.7747 9.75801 33.9297 9.5399 34.1227 9.35832C34.3157 9.17674 34.5428 9.03532 34.7909 8.94228C35.039 8.84924 35.3032 8.80643 35.568 8.81634C35.8328 8.82625 36.0929 8.88868 36.3334 9L39.6667 10.6667C41.0703 11.3969 42.2472 12.4974 43.0698 13.8488C43.8925 15.2003 44.3294 16.7512 44.3334 18.3333V31.3333H65.6668C66.6739 31.3517 67.6638 31.598 68.562 32.0538C69.4603 32.5096 70.2436 33.163 70.8531 33.965C71.4626 34.767 71.8825 35.6967 72.0811 36.6842C72.2798 37.6717 72.2521 38.6914 72.0001 39.6667L65.3334 66.3333C64.9693 67.7444 64.1529 68.9973 63.0091 69.9003C61.8653 70.8033 60.4571 71.3067 59.0001 71.3333H14.3334C12.5653 71.3333 10.8696 70.631 9.61937 69.3807C8.36913 68.1305 7.66675 66.4348 7.66675 64.6667V44.6667C7.66675 42.8986 8.36913 41.2029 9.61937 39.9526C10.8696 38.7024 12.5653 38 14.3334 38H24.3334ZM24.3334 38V71.3333" stroke="white" stroke-width="5" stroke-linecap="round" stroke-linejoin="round"/>
</svg>
